<?xml version="1.0" encoding="utf-8"?>
<!-- Generator: Adobe Illustrator 25.0.1, SVG Export Plug-In . SVG Version: 6.00 Build 0)  -->
<svg version="1.1" id="Capa_1" xmlns="http://www.w3.org/2000/svg" xmlns:xlink="http://www.w3.org/1999/xlink" x="0px" y="0px"
	 viewBox="0 0 512 512" style="enable-background:new 0 0 512 512;" xml:space="preserve">
<style type="text/css">
	.st0{fill:#FFFFFF;}
</style>
<path id="XMLID_972_" class="st0" d="M496.9,73.6H15.1C6.8,73.6,0,80.4,0,88.7v302.2c0,8.3,6.8,15.1,15.1,15.1h225.8v22.2h-77.3
	c-8.3,0-15.1,6.8-15.1,15.1c0,8.3,6.8,15.1,15.1,15.1h184.8c8.3,0,15.1-6.8,15.1-15.1c0-8.3-6.8-15.1-15.1-15.1h-77.3V406h225.8
	c8.3,0,15.1-6.8,15.1-15.1V88.7C512,80.4,505.2,73.6,496.9,73.6z M30.2,375.8v-272h451.6v272H30.2z"/>
</svg>
