<?xml version="1.0" encoding="utf-8"?>
<!-- Generator: Adobe Illustrator 25.0.1, SVG Export Plug-In . SVG Version: 6.00 Build 0)  -->
<svg version="1.1" id="Capa_1" xmlns="http://www.w3.org/2000/svg" xmlns:xlink="http://www.w3.org/1999/xlink" x="0px" y="0px"
	 viewBox="0 0 512 512" style="enable-background:new 0 0 512 512;" xml:space="preserve">
<style type="text/css">
	.st0{fill:#FFFFFF;}
</style>
<g id="XMLID_86_">
	<path id="XMLID_107_" class="st0" d="M316.5,40h-121C163.8,40,138,65.8,138,97.5v317c0,31.7,25.8,57.5,57.5,57.5h121
		c31.7,0,57.5-25.8,57.5-57.5v-317C374,65.8,348.2,40,316.5,40z M168,97.5c0-15.2,12.3-27.5,27.5-27.5h121
		c15.2,0,27.5,12.3,27.5,27.5v317c0,15.2-12.3,27.5-27.5,27.5h-121c-15.2,0-27.5-12.3-27.5-27.5V97.5z"/>
	<path id="XMLID_122_" class="st0" d="M256,397c-8.3,0-15,6.7-15,15v2c0,8.3,6.7,15,15,15s15-6.7,15-15v-2
		C271,403.7,264.3,397,256,397z"/>
</g>
</svg>
