<?xml version="1.0" encoding="utf-8"?>
<!-- Generator: Adobe Illustrator 25.0.1, SVG Export Plug-In . SVG Version: 6.00 Build 0)  -->
<svg version="1.1" id="Calque_1" xmlns="http://www.w3.org/2000/svg" xmlns:xlink="http://www.w3.org/1999/xlink" x="0px" y="0px"
	 viewBox="0 0 153 198" style="enable-background:new 0 0 153 198;" xml:space="preserve">
<style type="text/css">
	.st0{fill:#FFFFFF;}
</style>
<path class="st0" d="M83,13.6c-1.3-0.7-2.8-0.2-3.5,1c-0.2,0.4-0.3,0.8-0.3,1.2C78.9,45.1,48.3,55,48.3,79.1
	c-5.3-4.7-7.4-15.2-7.9-20.5c-0.2-1.4-1.5-2.5-2.9-2.3c-0.7,0.1-1.3,0.4-1.8,1c-7.9,10.3-23.8,34.6-23.8,64
	c0,42.9,34.1,61.9,60.8,61.9s70.5-20.3,70.5-75.7C143.1,54.3,108.5,27.4,83,13.6z"/>
</svg>
