<?xml version="1.0" encoding="utf-8"?>
<!-- Generator: Adobe Illustrator 25.0.1, SVG Export Plug-In . SVG Version: 6.00 Build 0)  -->
<svg version="1.1" id="Calque_1" xmlns="http://www.w3.org/2000/svg" xmlns:xlink="http://www.w3.org/1999/xlink" x="0px" y="0px"
	 viewBox="0 0 632 257.7" style="enable-background:new 0 0 632 257.7;" xml:space="preserve">
<style type="text/css">
	.st0{fill:#FFFFFF;}
</style>
<g>
	<path class="st0" d="M495.1,166.2h-52.3l2-12.3l27.4-25.4l3.7-3.7c5.9-5.9,8.6-11.6,8.1-16.8c-0.5-4.2-2.5-6.2-6.4-6.4
		c-2.7,0-4.9,1-6.9,3.2c-2,2.2-3,5.2-3.5,8.9H450c0.2-4.9,1.7-9.4,4.4-13.3c2.7-3.9,6.2-7.2,10.6-9.4c4.4-2.2,9.1-3.5,14.1-3.5
		c7.6,0.2,13.3,2.2,17.5,6.2c4.2,3.9,5.9,9.4,5.4,16c-0.2,3.9-1.7,7.9-3.9,11.6c-2.2,3.7-5.7,7.6-9.9,11.8l-8.1,7.4L468,152.2h29.1
		L495.1,166.2z"/>
	<path class="st0" d="M506.7,158.1c0-2.7,0.7-4.9,2.7-6.7c2-1.7,4.2-2.7,6.9-2.7c2.7,0,4.9,0.7,6.7,2.5s2.7,3.7,3,6.2
		c0,2.7-0.7,4.9-2.7,6.7c-2,1.7-4.2,2.7-6.9,2.7c-2.7,0-4.9-0.7-6.7-2.5C507.7,162.8,506.7,160.6,506.7,158.1z"/>
	<path class="st0" d="M563.2,167.2c-4.4,0-8.1-1.2-11.6-3.2c-3.2-2-5.7-4.9-7.6-8.6c-1.7-3.7-2.7-8.1-3-13.1c0-2.7,0-5.2,0.2-7.9
		l2-13.6c1.7-10.9,5.2-19.2,10.4-24.9c5.4-5.7,12.1-8.6,20.5-8.4c6.7,0.2,12.1,2.5,15.8,6.9c3.7,4.4,5.9,10.4,6.2,18
		c0,2.7,0,5.2-0.5,7.9l-2.2,13.8c-1.7,11.1-5.2,19.2-10.6,24.9C578,164.8,571.1,167.5,563.2,167.2z M578.7,118.1
		c0.2-2.5,0.5-4.7,0.5-6.4c0-6.4-2-9.9-6.2-10.1c-6.2-0.2-10.1,5.2-11.6,16.3l-2.7,19c-0.2,3-0.5,5.2-0.5,6.4
		c-0.2,6.7,2,9.9,6.2,10.1c6.4,0.2,10.4-5.2,11.8-16.5L578.7,118.1z"/>
</g>
<g id="Calque_2_1_">
	<path class="st0" d="M112.3,80.7c-9.6,0-18.8,4.2-24.9,11.6H87l1.2-7.2c0.2-1.1-0.6-2.3-1.7-2.4c-0.2,0-0.3,0-0.3,0H54.8
		c-1.1,0-1.8,0.8-2.1,1.7l-12.3,69.9c-0.2,1.4-9.5,37.6,25.7,48.5h1.7c1.1,0,1.8-0.8,2.1-1.7l6.5-37.4h0.3
		c4.2,5.9,14.1,9.2,22.8,9.2c28.1,0,49.1-24.6,49.1-54.7C148.5,97.6,136.2,80.7,112.3,80.7z M94.7,142.8c-8.4,0-13.2-5.4-13.2-12.8
		c0-10.4,6.9-19.2,17.1-19.2c8.7,0,13.4,5.6,13.4,12.8C112,134.1,105.5,142.8,94.7,142.8z"/>
	<path class="st0" d="M323.4,81.3c-1.7-0.3-3.3-0.3-5-0.3c-10.1,0-17.3,5.4-22.5,12.6h-0.5c0.3-1.8,0.9-5.7,1.2-8.4
		c0.2-1.1-0.8-2.1-1.8-2.3h-0.2h-32c-1.1,0-2,0.8-2,1.8c-0.6,5.1-1.5,11.7-2.3,15.5l-4.4,24.6c-5.9,31.3,17.3,46.3,27.5,46.3l0,0
		c1.1,0,2-0.8,2.1-1.8l7.2-41c1.5-8.3,8.1-15.5,19.7-15.5c1.8,0,3.8,0.2,5.6,0.3c1.4,0.2,2.6-0.8,2.9-2l6-27.4
		C325.2,82.7,324.6,81.6,323.4,81.3L323.4,81.3z"/>
	<path class="st0" d="M374.8,80.1c-34.7,0-54.7,24.5-54.7,54.1c0,25.7,21.2,39.4,47.9,39.4c35.3,0,55.3-24.5,55.3-54.1
		C423.4,93.8,402.3,80.1,374.8,80.1z M369.7,142.8c-8.4,0-13.1-5.4-13.1-12.8c0-10.4,6.8-19.2,17-19.2c8.7,0,13.2,5.6,13.2,12.8
		C386.9,134.1,380.4,142.8,369.7,142.8z"/>
	<path class="st0" d="M255.2,85.8c0.6-1.1,0.2-2.3-0.8-2.7c-0.3-0.2-0.6-0.3-1.1-0.3h-33.7c-2,0-3.6,1.2-4.4,2.9L196,122.8h-0.6
		l-5.1-38.2c-0.2-1.1-1.1-1.8-2.1-1.8H151c-1.2,0-2.1,0.9-2.1,2.1c0,0.2,0,0.3,0,0.5l19.7,81.2c0.5,1.8,0.3,3.8-0.5,5.6l0,0
		l-15.3,28c-0.5,1.1-0.2,2.3,0.9,2.7c0.3,0.2,0.6,0.2,0.9,0.3h10.2c0.8,0,27.2-0.2,39.5-23.3l30.5-56.4L255.2,85.8z"/>
</g>
</svg>
