<?xml version="1.0" encoding="utf-8"?>
<!-- Generator: Adobe Illustrator 25.0.1, SVG Export Plug-In . SVG Version: 6.00 Build 0)  -->
<svg version="1.1" id="Capa_1" xmlns="http://www.w3.org/2000/svg" xmlns:xlink="http://www.w3.org/1999/xlink" x="0px" y="0px"
	 viewBox="0 0 512 512" style="enable-background:new 0 0 512 512;" xml:space="preserve">
<style type="text/css">
	.st0{fill:#FFFFFF;}
</style>
<path id="XMLID_107_" class="st0" d="M444,426.5v-341c0-31.7-25.8-57.5-57.5-57.5h-257C97.8,28,72,53.8,72,85.5v341
	c0,31.7,25.8,57.5,57.5,57.5h257C418.2,484,444,458.2,444,426.5z M386.5,58c15.2,0,27.5,12.3,27.5,27.5v341
	c0,15.2-12.3,27.5-27.5,27.5h-257c-15.2,0-27.5-12.3-27.5-27.5v-341c0-15.2,12.3-27.5,27.5-27.5H386.5z"/>
<path id="XMLID_122_" class="st0" d="M267,416c0-8.3-6.7-15-15-15h-2c-8.3,0-15,6.7-15,15s6.7,15,15,15h2
	C260.3,431,267,424.3,267,416z"/>
</svg>
