<?xml version="1.0" encoding="utf-8"?>
<!-- Generator: Adobe Illustrator 25.0.1, SVG Export Plug-In . SVG Version: 6.00 Build 0)  -->
<svg version="1.1" id="Capa_1" xmlns="http://www.w3.org/2000/svg" xmlns:xlink="http://www.w3.org/1999/xlink" x="0px" y="0px"
	 viewBox="0 0 512 512" style="enable-background:new 0 0 512 512;" xml:space="preserve">
<style type="text/css">
	.st0{fill:#FFFFFF;}
</style>
<g id="XMLID_541_">
	<path id="XMLID_562_" class="st0" d="M416.8,0H95.2c-32.5,0-59,26.4-59,59v391.3c0,34,26,61.7,58,61.7h323.5c32,0,58-27.7,58-61.7
		V59C475.7,26.4,449.3,0,416.8,0z M95.2,30.2h321.5c15.8,0,28.7,12.9,28.7,28.7v335.1h-14.1V74.7c0-18.4-15-33.4-33.4-33.4H114
		c-18.4,0-33.4,15-33.4,33.4v319.3H66.5V59C66.5,43.1,79.4,30.2,95.2,30.2z M401.1,394.1H110.9V74.7c0-1.7,1.4-3.2,3.2-3.2H398
		c1.7,0,3.2,1.4,3.2,3.2L401.1,394.1L401.1,394.1z M417.8,481.8H94.2c-15.3,0-27.7-14.1-27.7-31.5v-26h379v26
		C445.5,467.6,433,481.8,417.8,481.8z"/>
	<path id="XMLID_565_" class="st0" d="M256,436.4c-8.3,0-15.1,6.8-15.1,15.1v2c0,8.3,6.8,15.1,15.1,15.1c8.3,0,15.1-6.8,15.1-15.1
		v-2C271.1,443.2,264.3,436.4,256,436.4z"/>
</g>
</svg>
